<svg width="24" height="24" viewBox="0 0 24 24" fill="none" xmlns="http://www.w3.org/2000/svg">
<path fill-rule="evenodd" clip-rule="evenodd" d="M13.4579 11.1595L20.4241 6.66511C21.0895 6.2358 21.9662 6.71351 21.9662 7.50541V16.4941C21.9662 17.286 21.0895 17.7637 20.4241 17.3344L13.4579 12.8401C12.8474 12.4462 12.8474 11.5533 13.4579 11.1595ZM19.3399 4.98452C21.3362 3.69659 23.9662 5.12971 23.9662 7.50541V16.4941C23.9662 18.8698 21.3362 20.3029 19.3399 19.015L12.3736 14.5206C10.5421 13.339 10.5421 10.6605 12.3736 9.47887L19.3399 4.98452Z" fill="#777E91"/>
<path fill-rule="evenodd" clip-rule="evenodd" d="M2.45787 11.1595L9.42411 6.66511C10.0895 6.2358 10.9662 6.71351 10.9662 7.50541V16.4941C10.9662 17.286 10.0895 17.7637 9.42411 17.3344L2.45787 12.8401C1.84738 12.4462 1.84737 11.5533 2.45787 11.1595ZM8.33986 4.98452C10.3362 3.69659 12.9662 5.12971 12.9662 7.50541V16.4941C12.9662 18.8698 10.3362 20.3029 8.33986 19.015L1.37362 14.5206C-0.457874 13.339 -0.457873 10.6605 1.37362 9.47887L8.33986 4.98452Z" fill="#777E91"/>
</svg>
