<svg width="24" height="24" viewBox="0 0 24 24" fill="none" xmlns="http://www.w3.org/2000/svg">
<path fill-rule="evenodd" clip-rule="evenodd" d="M11.9996 18C16.1251 18 19.0588 15.4076 20.7768 13.2486C21.3727 12.4998 21.3727 11.5002 20.7768 10.7514C19.0588 8.59239 16.1251 6 11.9996 6C7.87408 6 4.94037 8.59238 3.22231 10.7514C2.62642 11.5002 2.62642 12.4998 3.22231 13.2486C4.94037 15.4076 7.87408 18 11.9996 18ZM22.3418 14.494C23.5178 13.0163 23.5178 10.9837 22.3418 9.506C20.4735 7.15826 17.0261 4 11.9996 4C6.97304 4 3.52563 7.15826 1.65736 9.506C0.481402 10.9837 0.481402 13.0163 1.65736 14.494C3.52563 16.8417 6.97304 20 11.9996 20C17.0261 20 20.4735 16.8417 22.3418 14.494Z" fill="#777E91"/>
<path fill-rule="evenodd" clip-rule="evenodd" d="M14 12C14 13.1046 13.1046 14 12 14C10.8954 14 10 13.1046 10 12C10 11.9716 10.0006 11.9434 10.0018 11.9153C10.1577 11.9701 10.3253 12 10.5 12C11.3284 12 12 11.3284 12 10.5C12 10.3253 11.9701 10.1577 11.9153 10.0018C11.9434 10.0006 11.9716 10 12 10C13.1046 10 14 10.8954 14 12ZM16 12C16 14.2091 14.2091 16 12 16C9.79086 16 8 14.2091 8 12C8 9.79086 9.79086 8 12 8C14.2091 8 16 9.79086 16 12Z" fill="#777E91"/>
</svg>
