<svg width="24" height="24" viewBox="0 0 24 24" fill="none" xmlns="http://www.w3.org/2000/svg">
<path fill-rule="evenodd" clip-rule="evenodd" d="M3 5C3 2.79086 4.79086 1 7 1H15.3431C16.404 1 17.4214 1.42143 18.1716 2.17157L19.8284 3.82843C20.5786 4.57857 21 5.59599 21 6.65685V19C21 21.2091 19.2091 23 17 23H7C4.79086 23 3 21.2091 3 19V5ZM19 8V19C19 20.1046 18.1046 21 17 21H7C5.89543 21 5 20.1046 5 19V5C5 3.89543 5.89543 3 7 3H14V5C14 6.65685 15.3431 8 17 8H19ZM18.8891 6C18.7909 5.7176 18.6296 5.45808 18.4142 5.24264L16.7574 3.58579C16.5419 3.37035 16.2824 3.20914 16 3.11094V5C16 5.55228 16.4477 6 17 6H18.8891Z" fill="#777E91"/>
<path fill-rule="evenodd" clip-rule="evenodd" d="M16.6001 11.2001C17.0419 11.5314 17.1315 12.1582 16.8001 12.6001L13.8001 16.6001C13.4817 17.0246 12.887 17.1265 12.4454 16.8321L10.2775 15.3868L8.83216 17.5548C8.5258 18.0143 7.90493 18.1385 7.44541 17.8321C6.98588 17.5258 6.8617 16.9049 7.16806 16.4454L9.16806 13.4454C9.47441 12.9858 10.0953 12.8617 10.5548 13.168L12.7677 14.6433L15.2001 11.4001C15.5315 10.9582 16.1583 10.8687 16.6001 11.2001Z" fill="#777E91"/>
</svg>
