<svg width="24" height="24" viewBox="0 0 24 24" fill="none" xmlns="http://www.w3.org/2000/svg">
<path fill-rule="evenodd" clip-rule="evenodd" d="M4.65692 17.8285L6.17165 19.3432C7.73374 20.9053 10.2664 20.9053 11.8285 19.3432L16.4645 14.7071C16.8551 14.3166 16.8551 13.6835 16.4645 13.2929L10.7072 7.53557C10.3167 7.14505 9.68349 7.14504 9.29296 7.53557L4.65693 12.1716C3.09483 13.7337 3.09483 16.2664 4.65692 17.8285ZM3.24271 19.2427L4.75743 20.7574C7.10058 23.1005 10.8996 23.1005 13.2427 20.7574L17.8787 16.1214C19.0503 14.9498 19.0503 13.0503 17.8787 11.8787L12.1214 6.12135C10.9498 4.94978 9.05032 4.94978 7.87875 6.12136L3.24271 10.7574C0.899567 13.1005 0.899564 16.8995 3.24271 19.2427Z" fill="#777E91"/>
<path d="M9 16C9 16.5523 8.55228 17 8 17C7.44772 17 7 16.5523 7 16C7 15.4477 7.44772 15 8 15C8.55228 15 9 15.4477 9 16Z" fill="#777E91"/>
<path d="M11.4072 5.59245C11.6639 5.72886 11.9048 5.90516 12.121 6.12135L12.9139 6.91422L15.2925 4.53557C15.6831 4.14504 16.3162 4.14505 16.7067 4.53557L19.4641 7.29293C19.8546 7.68345 19.8546 8.31662 19.4641 8.70714L17.0855 11.0858L17.8784 11.8787C18.0946 12.0949 18.2708 12.3358 18.4072 12.5924L20.8783 10.1214C22.0499 8.94978 22.0499 7.05029 20.8783 5.87872L18.121 3.12135C16.9494 1.94978 15.0499 1.94978 13.8783 3.12136L11.4072 5.59245Z" fill="#777E91"/>
</svg>
