<svg width="24" height="24" viewBox="0 0 24 24" fill="none" xmlns="http://www.w3.org/2000/svg">
<path fill-rule="evenodd" clip-rule="evenodd" d="M10.5084 11.1595L3.54213 6.66511C2.8767 6.2358 2 6.71351 2 7.50541V16.4941C2 17.286 2.8767 17.7637 3.54213 17.3344L10.5084 12.8401C11.1189 12.4462 11.1189 11.5533 10.5084 11.1595ZM4.62638 4.98452C2.63009 3.69659 0 5.12971 0 7.50541V16.4941C0 18.8698 2.63009 20.3029 4.62638 19.015L11.5926 14.5206C13.4241 13.339 13.4241 10.6605 11.5926 9.47887L4.62638 4.98452Z" fill="#777E91"/>
<path fill-rule="evenodd" clip-rule="evenodd" d="M21.5084 11.1595L14.5421 6.66511C13.8767 6.2358 13 6.71351 13 7.50541V16.4941C13 17.286 13.8767 17.7637 14.5421 17.3344L21.5084 12.8401C22.1189 12.4462 22.1189 11.5533 21.5084 11.1595ZM15.6264 4.98452C13.6301 3.69659 11 5.12971 11 7.50541V16.4941C11 18.8698 13.6301 20.3029 15.6264 19.015L22.5926 14.5206C24.4241 13.339 24.4241 10.6605 22.5926 9.47887L15.6264 4.98452Z" fill="#777E91"/>
</svg>
