<svg width="24" height="24" viewBox="0 0 24 24" fill="none" xmlns="http://www.w3.org/2000/svg">
<path fill-rule="evenodd" clip-rule="evenodd" d="M16.7392 2H7.25997C6.67493 2 6.21484 2.50003 6.26343 3.08305L7.76343 21.083C7.80662 21.6013 8.23988 22 8.75997 22H15.2392C15.7593 22 16.1925 21.6013 16.2357 21.083L17.7357 3.08305C17.7843 2.50003 17.3242 2 16.7392 2ZM7.25997 0C5.50485 0 4.12458 1.50008 4.27034 3.24914L5.77034 21.2491C5.89991 22.804 7.19971 24 8.75997 24H15.2392C16.7994 24 18.0992 22.804 18.2288 21.2491L19.7288 3.24914C19.8746 1.50008 18.4943 0 16.7392 0H7.25997Z" fill="#777E91"/>
<path d="M10 14C10.5523 14 11 13.5523 11 13C11 12.4477 10.5523 12 10 12C9.44771 12 9 12.4477 9 13C9 13.5523 9.44771 14 10 14Z" fill="#777E91"/>
<path d="M14 19C14.5523 19 15 18.5523 15 18C15 17.4477 14.5523 17 14 17C13.4477 17 13 17.4477 13 18C13 18.5523 13.4477 19 14 19Z" fill="#777E91"/>
<path d="M17.3267 7.99094C14.933 7.92386 13.6575 7.49868 12.3325 7.05699L12.3158 7.05142C10.8513 6.56326 9.32864 6.05898 6.50684 6.00488L6.67387 8.0093C9.0666 8.07652 10.3419 8.50162 11.6666 8.94322L11.6833 8.94879C13.0893 9.41746 14.549 9.90097 17.1604 9.98672L17.3267 7.99094Z" fill="#777E91"/>
</svg>
