<svg width="24" height="24" viewBox="0 0 24 24" fill="none" xmlns="http://www.w3.org/2000/svg">
<path fill-rule="evenodd" clip-rule="evenodd" d="M13.8697 17.7889L20.0075 5.51333C20.2195 5.08948 20.0693 4.57392 19.663 4.33011C19.21 4.05832 18.6215 4.22969 18.3852 4.70219L13.6183 14.2361C12.7713 15.9301 11.04 17.0001 9.14612 17.0001H4.97741C4.31303 17.0001 3.83337 17.636 4.01589 18.2748L4.3016 19.2748C4.42426 19.7041 4.81664 20.0001 5.26313 20.0001H10.292C11.8071 20.0001 13.1922 19.1441 13.8697 17.7889ZM21.7964 6.40776L15.6586 18.6834C14.6422 20.7161 12.5646 22.0001 10.292 22.0001H5.26313C3.92368 22.0001 2.74653 21.1122 2.37855 19.8242L2.09284 18.8242C1.54528 16.9078 2.98427 15.0001 4.97741 15.0001H9.14612C10.2824 15.0001 11.3212 14.3581 11.8294 13.3417L16.5964 3.80776C17.3536 2.29324 19.24 1.74393 20.692 2.61513C21.9945 3.39662 22.4757 5.04917 21.7964 6.40776Z" fill="#777E91"/>
<path d="M11.749 13.4922C11.7773 13.443 11.8042 13.3927 11.8298 13.3415L12.6478 11.7056L17.8478 14.3056L16.9534 16.0944L11.749 13.4922Z" fill="#777E91"/>
<path d="M2 11C2 10.4477 2.44772 10 3 10H5C5.55228 10 6 10.4477 6 11V11C6 11.5523 5.55228 12 5 12H3C2.44772 12 2 11.5523 2 11V11Z" fill="#777E91"/>
</svg>
