<svg width="24" height="24" viewBox="0 0 24 24" fill="none" xmlns="http://www.w3.org/2000/svg">
<path d="M18.5424 8.7207L16.8311 11.1166C17.4979 11.3084 18.0694 11.7252 18.4582 12.2796L20.1696 9.88357C19.5028 9.69183 18.9312 9.27504 18.5424 8.7207Z" fill="#777E91"/>
<path d="M13.9176 11.8407C13.4357 12.3056 13.109 12.9303 13.0229 13.6294L10.0828 12.1594C10.5647 11.6945 10.8914 11.0699 10.9775 10.3707L13.9176 11.8407Z" fill="#777E91"/>
<path d="M5.54239 11.7207L3.83105 14.1166C4.49786 14.3084 5.0694 14.7252 5.45816 15.2796L7.16959 12.8836C6.50276 12.6918 5.93119 12.275 5.54239 11.7207Z" fill="#777E91"/>
<path fill-rule="evenodd" clip-rule="evenodd" d="M24 7C24 8.65685 22.6569 10 21 10C19.3431 10 18 8.65685 18 7C18 5.34315 19.3431 4 21 4C22.6569 4 24 5.34315 24 7ZM22 7C22 7.55228 21.5523 8 21 8C20.4477 8 20 7.55228 20 7C20 6.44772 20.4477 6 21 6C21.5523 6 22 6.44772 22 7Z" fill="#777E91"/>
<path fill-rule="evenodd" clip-rule="evenodd" d="M11 10C11 11.6569 9.65685 13 8 13C6.34315 13 5 11.6569 5 10C5 8.34315 6.34315 7 8 7C9.65685 7 11 8.34315 11 10ZM9 10C9 10.5523 8.55228 11 8 11C7.44772 11 7 10.5523 7 10C7 9.44772 7.44772 9 8 9C8.55228 9 9 9.44772 9 10Z" fill="#777E91"/>
<path fill-rule="evenodd" clip-rule="evenodd" d="M6 17C6 18.6569 4.65685 20 3 20C1.34315 20 0 18.6569 0 17C0 15.3431 1.34315 14 3 14C4.65685 14 6 15.3431 6 17ZM4 17C4 17.5523 3.55228 18 3 18C2.44772 18 2 17.5523 2 17C2 16.4477 2.44772 16 3 16C3.55228 16 4 16.4477 4 17Z" fill="#777E91"/>
<path fill-rule="evenodd" clip-rule="evenodd" d="M16 17C17.6569 17 19 15.6569 19 14C19 12.3431 17.6569 11 16 11C14.3431 11 13 12.3431 13 14C13 15.6569 14.3431 17 16 17ZM16 15C16.5523 15 17 14.5523 17 14C17 13.4477 16.5523 13 16 13C15.4477 13 15 13.4477 15 14C15 14.5523 15.4477 15 16 15Z" fill="#777E91"/>
</svg>
