<svg width="24" height="24" viewBox="0 0 24 24" fill="none" xmlns="http://www.w3.org/2000/svg">
<path fill-rule="evenodd" clip-rule="evenodd" d="M18.253 2.47824C20.3136 1.61966 22.3809 3.68688 21.5223 5.74747L15.5988 19.9639C14.4403 22.7442 10.3655 22.2743 9.87034 19.3033L9.13133 14.8692L4.69725 14.1302C1.72626 13.635 1.25632 9.56021 4.0366 8.40176L18.253 2.47824ZM19.6761 4.97824C19.8478 4.56612 19.4344 4.15268 19.0223 4.32439L4.80583 10.2479C3.87907 10.6341 4.03572 11.9923 5.02605 12.1574L9.46013 12.8964C10.3031 13.0369 10.9636 13.6974 11.1041 14.5404L11.8431 18.9745C12.0082 19.9648 13.3665 20.1214 13.7526 19.1947L19.6761 4.97824Z" fill="#777E91"/>
</svg>
