<svg width="24" height="24" viewBox="0 0 24 24" fill="none" xmlns="http://www.w3.org/2000/svg">
<path fill-rule="evenodd" clip-rule="evenodd" d="M5.49955 3.50004C7.2924 1.70719 10.1184 1.5772 12.0611 3.11008C12.3337 3.32516 12.5779 3.57306 12.8216 3.82034C12.8643 3.86366 12.9069 3.90695 12.9497 3.95004L21.6783 12.6786C22.2431 13.2434 21.9505 14.2097 21.1673 14.3663L18.2964 14.9405C18.1028 14.9792 17.9251 15.0743 17.7855 15.2139L12.1209 20.8785C10.9493 22.0501 9.0498 22.0501 7.87823 20.8785L3.12087 16.1212C1.94929 14.9496 1.9493 13.0501 3.12087 11.8785L5.03491 9.96448C3.58147 8.02573 3.73635 5.26324 5.49955 3.50004ZM6.474 8.52539L10.5249 4.47449C9.39044 3.7881 7.89333 3.93469 6.91377 4.91425C5.9342 5.89382 5.78761 7.39093 6.474 8.52539ZM9.29244 19.4643L4.53508 14.707C4.14456 14.3164 4.14456 13.6833 4.53508 13.2927L11.9995 5.82828L18.9429 12.7716L17.9042 12.9793C17.3234 13.0955 16.79 13.3809 16.3712 13.7997L10.7067 19.4643C10.3161 19.8548 9.68296 19.8548 9.29244 19.4643Z" fill="#777E91"/>
<path d="M13.171 17H6.82812L4.82812 15H15.171L13.171 17Z" fill="#777E91"/>
<path d="M22 20.0001C22 21.1047 21.1046 22.0001 20 22.0001C18.8954 22.0001 18 21.1047 18 20.0001C18 18.8592 19.1571 17.7183 19.711 17.2374C19.8788 17.0918 20.1212 17.0918 20.289 17.2374C20.8429 17.7183 22 18.8592 22 20.0001Z" fill="#777E91"/>
</svg>
