<svg width="24" height="24" viewBox="0 0 24 24" fill="none" xmlns="http://www.w3.org/2000/svg">
<path fill-rule="evenodd" clip-rule="evenodd" d="M9.37116 3.77934L2.80933 15.7099C1.7373 17.6591 2.17661 20.0433 4.26734 20.8032C6.01844 21.4396 8.5421 22 11.9998 22C15.4575 22 17.9812 21.4396 19.7323 20.8032C21.823 20.0433 22.2623 17.6591 21.1903 15.7099L14.6285 3.77934C13.4887 1.70701 10.5109 1.70702 9.37116 3.77934ZM5.50738 14.9545L11.1236 4.74318C11.5035 4.0524 12.4961 4.05241 12.876 4.74318L18.4922 14.9544C18.4106 14.997 18.3197 15.0411 18.2185 15.0861C17.2634 15.5106 15.4144 15.9999 11.9997 15.9999C8.58489 15.9999 6.73597 15.5106 5.78081 15.0861C5.67973 15.0412 5.58888 14.9971 5.50738 14.9545ZM19.4559 16.7072C19.3254 16.7765 19.184 16.8456 19.0308 16.9137C17.736 17.4892 15.5849 17.9999 11.9997 17.9999C8.41444 17.9999 6.26336 17.4892 4.96853 16.9137C4.81542 16.8457 4.67407 16.7766 4.54362 16.7073C4.23624 17.2841 4.1957 17.8356 4.29087 18.2107C4.37436 18.5397 4.56195 18.7822 4.95048 18.9234C6.47105 19.4761 8.76245 20 11.9998 20C15.2372 20 17.5286 19.4761 19.0491 18.9234C19.4377 18.7822 19.6253 18.5397 19.7087 18.2107C19.8039 17.8356 19.7634 17.284 19.4559 16.7072Z" fill="#777E91"/>
<path d="M16.7804 11.8418L17.7468 13.5988C16.8422 14.0379 15.8033 14.121 14.8376 13.8277C13.8225 13.5194 12.9715 12.8205 12.4717 11.8848C11.9719 10.949 11.8643 9.85302 12.1726 8.83794C12.4564 7.90376 13.0709 7.10852 13.8964 6.59814L14.8628 8.35514C14.4931 8.61067 14.2182 8.98489 14.0863 9.41915C13.9322 9.92669 13.986 10.4747 14.2359 10.9426C14.4857 11.4104 14.9113 11.7599 15.4188 11.914C15.8689 12.0507 16.3508 12.0239 16.7804 11.8418Z" fill="#777E91"/>
<path d="M11 13C11 13.5523 10.5523 14 10 14C9.44772 14 9 13.5523 9 13C9 12.4477 9.44772 12 10 12C10.5523 12 11 12.4477 11 13Z" fill="#777E91"/>
</svg>
