<svg width="24" height="24" viewBox="0 0 24 24" fill="none" xmlns="http://www.w3.org/2000/svg">
<path fill-rule="evenodd" clip-rule="evenodd" d="M5.41273 14.5876C5.79721 14.2031 6.06996 13.7214 6.20184 13.1939L6.79877 10.8062C6.93064 10.2787 7.2034 9.79695 7.58787 9.41247L13.5003 3.50004C15.4333 1.56704 18.5673 1.56704 20.5003 3.50004C22.4333 5.43304 22.4333 8.56704 20.5003 10.5L14.5879 16.4125C14.2034 16.7969 13.7217 17.0697 13.1942 17.2016L10.8064 17.7985C10.2789 17.9304 9.79721 18.2031 9.41273 18.5876L7.0003 21C5.89573 22.1046 4.10487 22.1046 3.0003 21C1.89573 19.8955 1.89573 18.1046 3.0003 17L5.41273 14.5876ZM12.7091 15.2613L10.3214 15.8582C9.44222 16.078 8.63931 16.5326 7.99852 17.1734L5.58609 19.5858C5.26257 19.9093 4.73804 19.9093 4.41452 19.5858C4.09099 19.2623 4.091 18.7378 4.41451 18.4143L6.82695 16.0018C7.46774 15.361 7.92233 14.5581 8.14212 13.679L8.73905 11.2913C8.78301 11.1154 8.87393 10.9548 9.00209 10.8267L14.9145 4.91425C16.0665 3.76231 17.9341 3.76231 19.0861 4.91425C20.238 6.0662 20.238 7.93388 19.0861 9.08582L13.1737 14.9983C13.0455 15.1264 12.8849 15.2173 12.7091 15.2613Z" fill="#777E91"/>
<path d="M17.0002 9.00015L15.0002 11.0002C14.4479 11.5524 13.5524 11.5524 13.0002 11.0002C12.4479 10.4479 12.4479 9.55244 13.0002 9.00015L15.0002 7.00015C15.5524 6.44787 16.4479 6.44787 17.0002 7.00015C17.5524 7.55244 17.5524 8.44787 17.0002 9.00015Z" fill="#777E91"/>
<path fill-rule="evenodd" clip-rule="evenodd" d="M8.99992 18.9999C8.6094 19.3904 7.97624 19.3904 7.58571 18.9999L4.99992 16.4141C4.6094 16.0236 4.6094 15.3904 4.99992 14.9999C5.39045 14.6094 6.02361 14.6094 6.41414 14.9999L8.99992 17.5857C9.39045 17.9762 9.39045 18.6094 8.99992 18.9999Z" fill="#777E91"/>
</svg>
