<svg width="24" height="24" viewBox="0 0 24 24" fill="none" xmlns="http://www.w3.org/2000/svg">
<path fill-rule="evenodd" clip-rule="evenodd" d="M15.7931 4.79312C17.0121 3.57417 18.9884 3.57417 20.2073 4.79312C21.4263 6.01207 21.4263 7.98838 20.2073 9.20733L8.20733 21.2073C6.98838 22.4263 5.01207 22.4263 3.79312 21.2073C2.57417 19.9884 2.57417 18.0121 3.79312 16.7931L15.7931 4.79312ZM18.7931 6.20733C18.3552 5.76943 17.6452 5.76943 17.2073 6.20733L5.20733 18.2073C4.76943 18.6452 4.76943 19.3552 5.20733 19.7931C5.64524 20.231 6.35522 20.231 6.79312 19.7931L18.7931 7.79312C19.231 7.35522 19.231 6.64524 18.7931 6.20733Z" fill="#777E91"/>
<path d="M13.2929 1.29289C13.6834 0.902369 14.3166 0.902369 14.7071 1.29289L17.7071 4.29289C18.0976 4.68342 18.0976 5.31658 17.7071 5.70711C17.3166 6.09763 16.6834 6.09763 16.2929 5.70711L13.2929 2.70711C12.9024 2.31658 12.9024 1.68342 13.2929 1.29289Z" fill="#777E91"/>
<path d="M11.2929 4.29289C11.6834 3.90237 12.3166 3.90237 12.7071 4.29289L15.2071 6.79289C15.5976 7.18342 15.5976 7.81658 15.2071 8.20711C14.8166 8.59763 14.1834 8.59763 13.7929 8.20711L11.2929 5.70711C10.9024 5.31658 10.9024 4.68342 11.2929 4.29289Z" fill="#777E91"/>
<path d="M9.70711 6.29289C9.31658 5.90237 8.68342 5.90237 8.29289 6.29289C7.90237 6.68342 7.90237 7.31658 8.29289 7.70711L11.2929 10.7071C11.6834 11.0976 12.3166 11.0976 12.7071 10.7071C13.0976 10.3166 13.0976 9.68342 12.7071 9.29289L9.70711 6.29289Z" fill="#777E91"/>
</svg>
