<svg width="24" height="24" viewBox="0 0 24 24" fill="none" xmlns="http://www.w3.org/2000/svg">
<path fill-rule="evenodd" clip-rule="evenodd" d="M12 22C15.866 22 19 18.866 19 15C19 11.134 15.866 8 12 8C8.13401 8 5 11.134 5 15C5 18.866 8.13401 22 12 22ZM12 24C16.9706 24 21 19.9706 21 15C21 10.0294 16.9706 6 12 6C7.02944 6 3 10.0294 3 15C3 19.9706 7.02944 24 12 24Z" fill="#777E91"/>
<path fill-rule="evenodd" clip-rule="evenodd" d="M8.85379 3C7.36703 3 6.40004 4.56462 7.06494 5.89443L7.89412 7.55279C8.14111 8.04676 7.94088 8.64744 7.44691 8.89443C6.95293 9.14142 6.35225 8.94119 6.10526 8.44721L5.27608 6.78885C3.94628 4.12925 5.88027 1 8.85379 1H15.1456C18.1191 1 20.0531 4.12925 18.7233 6.78885L17.8941 8.44721C17.6471 8.94119 17.0465 9.14142 16.5525 8.89443C16.0585 8.64744 15.8583 8.04677 16.1053 7.55279L16.9344 5.89443C17.5993 4.56462 16.6324 3 15.1456 3H8.85379Z" fill="#777E91"/>
</svg>
