<svg width="24" height="24" viewBox="0 0 24 24" fill="none" xmlns="http://www.w3.org/2000/svg">
<path d="M12 14C11.4477 14 11 14.4477 11 15V22H9C8.44772 22 8 22.4477 8 23C8 23.5523 8.44772 24 9 24H15C15.5523 24 16 23.5523 16 23C16 22.4477 15.5523 22 15 22H13V15C13 14.4477 12.5523 14 12 14Z" fill="#777E91"/>
<path fill-rule="evenodd" clip-rule="evenodd" d="M15.0383 2H8.96237C8.54154 2 8.28633 2.23377 8.20648 2.4704C7.51156 4.52989 6.70602 7.69224 7.05369 10.2178C7.22109 11.4339 7.63095 12.3172 8.2696 12.9043C8.89233 13.4768 9.98549 14 12.0003 14C14.0152 14 15.1083 13.4768 15.7311 12.9043C16.3697 12.3172 16.7796 11.4339 16.947 10.2178C17.2947 7.69224 16.4891 4.52989 15.7942 2.4704C15.7143 2.23377 15.4591 2 15.0383 2ZM8.96237 0C7.77048 0 6.69252 0.701641 6.31146 1.83097C4.89423 6.03107 2.52816 16 12.0003 16C21.4725 16 19.1064 6.03108 17.6892 1.83097C17.3082 0.701641 16.2302 0 15.0383 0H8.96237Z" fill="#777E91"/>
</svg>
