<svg width="24" height="24" viewBox="0 0 24 24" fill="none" xmlns="http://www.w3.org/2000/svg">
<path fill-rule="evenodd" clip-rule="evenodd" d="M12 20C16.4183 20 20 16.4183 20 12C20 7.58172 16.4183 4 12 4C7.58172 4 4 7.58172 4 12C4 16.4183 7.58172 20 12 20ZM12 22C17.5228 22 22 17.5228 22 12C22 6.47715 17.5228 2 12 2C6.47715 2 2 6.47715 2 12C2 17.5228 6.47715 22 12 22Z" fill="#777E91"/>
<path d="M5.99958 20.0005C8.42848 18.1761 9.99958 15.2714 9.99958 11.9998C9.99958 8.72812 8.42848 5.82344 5.99958 3.99902C5.45369 4.40906 4.95113 4.87365 4.5 5.38472C6.61254 6.82473 7.99958 9.25026 7.99958 11.9998C7.99958 14.7492 6.61254 17.1748 4.5 18.6148C4.95114 19.1259 5.4537 19.5905 5.99958 20.0005Z" fill="#777E91"/>
<path d="M17.9996 3.99903C15.5707 5.82344 13.9996 8.72812 13.9996 11.9998C13.9996 15.2714 15.5707 18.1761 17.9996 20.0005C18.5455 19.5905 19.048 19.1259 19.4992 18.6148C17.3866 17.1748 15.9996 14.7492 15.9996 11.9998C15.9996 9.25026 17.3866 6.82473 19.4992 5.38472C19.048 4.87366 18.5455 4.40906 17.9996 3.99903Z" fill="#777E91"/>
</svg>
