<svg width="24" height="24" viewBox="0 0 24 24" fill="none" xmlns="http://www.w3.org/2000/svg">
<path fill-rule="evenodd" clip-rule="evenodd" d="M4.76509 13C4.26077 13 3.83537 13.3755 3.77281 13.876L3.27281 17.876C3.19821 18.4728 3.66359 19 4.26509 19H9.73396C10.3355 19 10.8008 18.4728 10.7262 17.876L10.2262 13.876C10.1637 13.3755 9.73828 13 9.23396 13H4.76509ZM1.78826 13.6279C1.97592 12.1266 3.25212 11 4.76509 11H9.23396C10.7469 11 12.0231 12.1266 12.2108 13.6279L12.7108 17.6279C12.9346 19.4185 11.5385 21 9.73396 21H4.26509C2.4606 21 1.06444 19.4185 1.28826 17.6279L1.78826 13.6279Z" fill="#777E91"/>
<path fill-rule="evenodd" clip-rule="evenodd" d="M14.7651 13C14.2608 13 13.8354 13.3755 13.7728 13.876L13.2728 17.876C13.1982 18.4728 13.6636 19 14.2651 19H19.734C20.3355 19 20.8008 18.4728 20.7262 17.876L20.2262 13.876C20.1637 13.3755 19.7383 13 19.234 13H14.7651ZM11.7883 13.6279C11.9759 12.1266 13.2521 11 14.7651 11H19.234C20.7469 11 22.0231 12.1266 22.2108 13.6279L22.7108 17.6279C22.9346 19.4185 21.5385 21 19.734 21H14.2651C12.4606 21 11.0644 19.4185 11.2883 17.6279L11.7883 13.6279Z" fill="#777E91"/>
<path fill-rule="evenodd" clip-rule="evenodd" d="M9.76509 5C9.26077 5 8.83537 5.37554 8.77281 5.87597L8.27281 9.87597C8.19821 10.4728 8.66359 11 9.26509 11H14.734C15.3355 11 15.8008 10.4728 15.7262 9.87597L15.2262 5.87597C15.1637 5.37554 14.7383 5 14.234 5H9.76509ZM6.78826 5.6279C6.97592 4.12661 8.25212 3 9.76509 3H14.234C15.7469 3 17.0231 4.12661 17.2108 5.6279L17.7108 9.6279C17.9346 11.4185 16.5385 13 14.734 13H9.26509C7.4606 13 6.06444 11.4185 6.28826 9.6279L6.78826 5.6279Z" fill="#777E91"/>
</svg>
