<svg width="24" height="24" viewBox="0 0 24 24" fill="none" xmlns="http://www.w3.org/2000/svg">
<path d="M5.45761 8.7207L7.16895 11.1166C6.50214 11.3084 5.9306 11.7252 5.54184 12.2796L3.83041 9.88357C4.49724 9.69183 5.06881 9.27504 5.45761 8.7207Z" fill="#777E91"/>
<path d="M10.0824 11.8407C10.5643 12.3056 10.891 12.9303 10.9771 13.6294L13.9172 12.1594C13.4353 11.6945 13.1086 11.0699 13.0225 10.3707L10.0824 11.8407Z" fill="#777E91"/>
<path d="M18.4576 11.7207L20.1689 14.1166C19.5021 14.3084 18.9306 14.7252 18.5418 15.2796L16.8304 12.8836C17.4972 12.6918 18.0688 12.275 18.4576 11.7207Z" fill="#777E91"/>
<path fill-rule="evenodd" clip-rule="evenodd" d="M0 7C0 8.65685 1.34315 10 3 10C4.65685 10 6 8.65685 6 7C6 5.34315 4.65685 4 3 4C1.34315 4 0 5.34315 0 7ZM2 7C2 7.55228 2.44772 8 3 8C3.55228 8 4 7.55228 4 7C4 6.44772 3.55228 6 3 6C2.44772 6 2 6.44772 2 7Z" fill="#777E91"/>
<path fill-rule="evenodd" clip-rule="evenodd" d="M13 10C13 11.6569 14.3431 13 16 13C17.6569 13 19 11.6569 19 10C19 8.34315 17.6569 7 16 7C14.3431 7 13 8.34315 13 10ZM15 10C15 10.5523 15.4477 11 16 11C16.5523 11 17 10.5523 17 10C17 9.44772 16.5523 9 16 9C15.4477 9 15 9.44772 15 10Z" fill="#777E91"/>
<path fill-rule="evenodd" clip-rule="evenodd" d="M18 17C18 18.6569 19.3431 20 21 20C22.6569 20 24 18.6569 24 17C24 15.3431 22.6569 14 21 14C19.3431 14 18 15.3431 18 17ZM20 17C20 17.5523 20.4477 18 21 18C21.5523 18 22 17.5523 22 17C22 16.4477 21.5523 16 21 16C20.4477 16 20 16.4477 20 17Z" fill="#777E91"/>
<path fill-rule="evenodd" clip-rule="evenodd" d="M8 17C6.34315 17 5 15.6569 5 14C5 12.3431 6.34315 11 8 11C9.65685 11 11 12.3431 11 14C11 15.6569 9.65685 17 8 17ZM8 15C7.44772 15 7 14.5523 7 14C7 13.4477 7.44772 13 8 13C8.55228 13 9 13.4477 9 14C9 14.5523 8.55228 15 8 15Z" fill="#777E91"/>
</svg>
