<svg width="24" height="24" viewBox="0 0 24 24" fill="none" xmlns="http://www.w3.org/2000/svg">
<path fill-rule="evenodd" clip-rule="evenodd" d="M12.0002 6L18.0002 12L11.8603 18.1399C11.2899 18.7103 10.6394 19.1943 9.92924 19.5767L6.36795 21.4943C5.25937 22.0912 3.89049 21.8903 3.00019 21C2.10988 20.1097 1.90897 18.7408 2.5059 17.6322L4.42352 14.0709C4.80592 13.3608 5.28993 12.7103 5.86026 12.1399L12.0002 6ZM12.0002 8.82843L7.27448 13.5541C6.84178 13.9868 6.47458 14.4804 6.18447 15.0191L4.26685 18.5804C4.08865 18.9114 4.14862 19.32 4.4144 19.5858C4.68017 19.8516 5.08881 19.9115 5.41975 19.7333L8.98104 17.8157C9.51982 17.5256 10.0134 17.1584 10.4461 16.7257L15.1718 12L12.0002 8.82843Z" fill="#777E91"/>
<path fill-rule="evenodd" clip-rule="evenodd" d="M18 12L20.5001 9.49996C22.157 7.84311 22.157 5.15682 20.5001 3.49997C18.8433 1.84311 16.157 1.84311 14.5001 3.49996L12 6.00004L11.2501 5.25011C10.8359 4.8359 10.1643 4.8359 9.75011 5.25011C9.3359 5.66433 9.3359 6.3359 9.75011 6.75011L17.2501 14.2501C17.6643 14.6643 18.3359 14.6643 18.7501 14.2501C19.1643 13.8359 19.1643 13.1643 18.7501 12.7501L18 12ZM13.4143 7.41426L16.5858 10.5858L19.0859 8.08575C19.9617 7.20995 19.9617 5.78998 19.0859 4.91418C18.2101 4.03837 16.7901 4.03837 15.9143 4.91418L13.4143 7.41426Z" fill="#777E91"/>
</svg>
