<svg width="24" height="24" viewBox="0 0 24 24" fill="none" xmlns="http://www.w3.org/2000/svg">
<g clip-path="url(#clip0_602_10035)">
<path fill-rule="evenodd" clip-rule="evenodd" d="M9.67139 19.1576C10.0831 19.3802 10.5175 19.5617 10.9686 19.6986C12.0702 20.0327 13.2372 20.0901 14.3662 19.8655C15.4953 19.6409 16.5515 19.1414 17.4413 18.4111C18.3312 17.6808 19.0272 16.7423 19.4677 15.6788C19.9083 14.6153 20.0797 13.4595 19.9669 12.3139C19.8541 11.1683 19.4604 10.0682 18.8209 9.11101C18.1813 8.15386 17.3156 7.3692 16.3004 6.82655C15.8846 6.60433 15.4491 6.42551 15.0006 6.29179L15.0006 12.5858C15.0006 13.3814 14.6845 14.1445 14.1219 14.7071L9.67139 19.1576ZM7.38154 20.0304C6.95012 19.6856 6.95321 19.0474 7.34374 18.6569L12.7077 13.2929C12.8952 13.1054 13.0006 12.851 13.0006 12.5858L13.0006 5C13.0006 4.44771 13.4497 3.99426 13.9986 4.0555C15.1312 4.18187 16.2327 4.52261 17.2432 5.06271C18.5485 5.7604 19.6615 6.76924 20.4838 7.99987C21.3061 9.23049 21.8122 10.6449 21.9573 12.1178C22.1023 13.5908 21.8819 15.0768 21.3155 16.4441C20.7491 17.8115 19.8542 19.0182 18.7101 19.9571C17.566 20.896 16.208 21.5383 14.7564 21.8271C13.3048 22.1158 11.8044 22.0421 10.388 21.6125C9.29162 21.2799 8.27181 20.7419 7.38154 20.0304Z" fill="#777E91"/>
<path fill-rule="evenodd" clip-rule="evenodd" d="M9 5.29176C8.33309 5.4906 7.69594 5.78884 7.11101 6.17968C5.95987 6.94885 5.06266 8.0421 4.53285 9.32118C4.00303 10.6003 3.86441 12.0077 4.13451 13.3656C4.27175 14.0556 4.51139 14.717 4.84237 15.3292L9 11.1715L9 5.29176ZM10.002 3.05546C10.5509 2.99422 11 3.44768 11 3.99997L11 11.5858C11 11.851 10.8946 12.1053 10.7071 12.2929L5.34315 17.6568C4.95263 18.0473 4.31443 18.0504 3.96962 17.619C3.07318 16.4974 2.45494 15.1735 2.17294 13.7558C1.82567 12.01 2.0039 10.2004 2.68509 8.55582C3.36628 6.91128 4.51983 5.50567 5.99987 4.51674C7.20174 3.71367 8.57508 3.21467 10.002 3.05546Z" fill="#777E91"/>
</g>
<defs>
<clipPath id="clip0_602_10035">
<rect width="24" height="24" fill="white"/>
</clipPath>
</defs>
</svg>
