<svg width="24" height="24" viewBox="0 0 24 24" fill="none" xmlns="http://www.w3.org/2000/svg">
<path fill-rule="evenodd" clip-rule="evenodd" d="M10.5854 18.5859L18.5854 10.5859C20.0135 9.15781 20.0135 6.84242 18.5854 5.41433C17.1573 3.98624 14.8419 3.98624 13.4138 5.41433L5.41384 13.4143C3.98575 14.8424 3.98575 17.1578 5.41384 18.5859C6.84193 20.014 9.15733 20.014 10.5854 18.5859ZM11.9996 20.0001L19.9996 12.0001C22.2088 9.79097 22.2088 6.20926 19.9996 4.00012C17.7905 1.79098 14.2088 1.79098 11.9996 4.00012L3.99963 12.0001C1.79049 14.2093 1.79049 17.791 3.99963 20.0001C6.20877 22.2093 9.79049 22.2093 11.9996 20.0001Z" fill="#777E91"/>
<path fill-rule="evenodd" clip-rule="evenodd" d="M15.9999 15.9999C15.6094 16.3904 14.9762 16.3904 14.5857 15.9999L7.99992 9.41414C7.6094 9.02361 7.6094 8.39045 7.99992 7.99992C8.39045 7.6094 9.02361 7.6094 9.41414 7.99992L15.9999 14.5857C16.3904 14.9762 16.3904 15.6094 15.9999 15.9999Z" fill="#777E91"/>
</svg>
