<svg width="24" height="24" viewBox="0 0 24 24" fill="none" xmlns="http://www.w3.org/2000/svg">
<path fill-rule="evenodd" clip-rule="evenodd" d="M1.82631 6.75049C1.95807 4.64235 3.70627 3 5.81852 3H18.1818C20.2941 3 22.0423 4.64235 22.174 6.75049L22.799 16.7505C22.9429 19.0533 21.1141 21 18.8068 21H16.5415C14.5862 21 12.9174 19.5863 12.596 17.6576L12.1782 15.1508C12.1637 15.0638 12.0884 15 12.0002 15C11.9119 15 11.8367 15.0638 11.8222 15.1508L11.4044 17.6576C11.0829 19.5863 9.41414 21 7.45878 21H5.19352C2.88623 21 1.05738 19.0533 1.20131 16.7505L1.82631 6.75049ZM5.81852 5C4.76239 5 3.88829 5.82117 3.82241 6.87524L3.19741 16.8752C3.12545 18.0266 4.03988 19 5.19352 19H7.45878C8.43646 19 9.27084 18.2932 9.43157 17.3288L9.84937 14.822C10.0246 13.7706 10.9343 13 12.0002 13C13.0661 13 13.9757 13.7706 14.151 14.822L14.5688 17.3288C14.7295 18.2932 15.5639 19 16.5415 19H18.8068C19.9605 19 20.8749 18.0266 20.8029 16.8752L20.1779 6.87524C20.112 5.82117 19.2379 5 18.1818 5H5.81852Z" fill="#777E91"/>
<path d="M1.62305 10L1.74805 8H22.2519L22.3769 10H1.62305Z" fill="#777E91"/>
</svg>
