<svg width="24" height="24" viewBox="0 0 24 24" fill="none" xmlns="http://www.w3.org/2000/svg">
<path fill-rule="evenodd" clip-rule="evenodd" d="M16 12C16 11.4477 16.4477 11 17 11H23C23.5523 11 24 11.4477 24 12C24 12.5523 23.5523 13 23 13H17C16.4477 13 16 12.5523 16 12Z" fill="#777E91"/>
<path fill-rule="evenodd" clip-rule="evenodd" d="M5.82843 9.9997H3C2.44772 9.9997 2 10.4474 2 10.9997V12.9997C2 13.552 2.44772 13.9997 3 13.9997H5.82843L9.29289 17.4642C9.92286 18.0941 11 17.648 11 16.7571V7.24234C11 6.35144 9.92286 5.90527 9.29289 6.53524L5.82843 9.9997ZM5 15.9997L7.87868 18.8784C9.76857 20.7683 13 19.4298 13 16.7571V7.24234C13 4.56963 9.76858 3.23113 7.87868 5.12102L5 7.9997H3C1.34315 7.9997 0 9.34285 0 10.9997V12.9997C0 14.6566 1.34315 15.9997 3 15.9997H5Z" fill="#777E91"/>
</svg>
